<?xml version="1.0" standalone="no"?>
<!DOCTYPE svg PUBLIC "-//W3C//DTD SVG 20010904//EN"
 "http://www.w3.org/TR/2001/REC-SVG-20010904/DTD/svg10.dtd">
<svg version="1.0" xmlns="http://www.w3.org/2000/svg"
 width="700.000000pt" height="700.000000pt" viewBox="0 0 700.000000 700.000000"
 preserveAspectRatio="xMidYMid meet">
<metadata>
Created by potrace 1.14, written by Peter Selinger 2001-2017
</metadata>
<g transform="translate(0.000000,700.000000) scale(0.100000,-0.100000)"
fill="#000000" stroke="none">
<path d="M3074 5549 c-449 -43 -836 -202 -1189 -486 -182 -146 -381 -376 -475
-547 -23 -41 -52 -82 -66 -91 -37 -24 -57 -80 -50 -133 6 -43 4 -46 -39 -84
-54 -47 -75 -85 -77 -134 -2 -49 -42 -70 -102 -55 -131 33 -227 -102 -167
-235 10 -23 35 -53 54 -68 31 -24 34 -31 27 -55 -17 -61 40 -121 115 -121 25
0 26 -3 23 -42 -2 -38 0 -43 20 -46 16 -3 20 0 16 12 -4 9 -1 23 6 31 7 8 9
22 6 31 -4 9 4 28 19 46 15 18 25 42 25 61 l0 32 -20 -32 c-24 -40 -48 -53
-99 -53 -67 0 -102 50 -64 92 16 17 14 21 -35 66 -28 26 -56 60 -62 75 -21 59
-9 115 34 149 29 24 107 24 137 -1 23 -18 23 -18 34 3 6 11 24 30 41 41 28 18
30 24 27 60 -5 52 20 93 87 141 44 31 48 38 39 56 -6 11 -11 36 -11 55 0 40
38 87 78 97 30 8 80 -17 89 -44 8 -24 13 -25 56 -3 20 11 54 17 82 16 41 -1
47 1 42 15 -19 49 -17 73 5 97 26 28 61 32 119 14 33 -10 41 -8 75 15 45 30
65 32 113 9 25 -11 41 -29 55 -59 20 -46 33 -53 112 -63 38 -5 54 -12 70 -34
18 -24 19 -29 6 -38 -8 -5 -34 -8 -56 -5 -37 5 -49 0 -100 -35 -76 -53 -104
-79 -104 -97 0 -10 9 -13 30 -10 l31 5 -31 -32 c-32 -33 -39 -65 -17 -83 16
-14 133 0 174 21 29 15 43 14 43 -5 0 -5 -11 -13 -25 -18 -14 -5 -25 -14 -25
-20 0 -28 96 9 109 42 6 13 12 39 16 59 7 46 48 91 77 87 12 -2 29 -15 37 -30
20 -35 2 -58 -45 -58 -18 0 -34 -3 -36 -7 -2 -5 17 -29 43 -54 33 -31 52 -43
61 -38 21 14 65 10 82 -7 9 -8 16 -30 16 -48 0 -35 -23 -62 -74 -88 l-29 -15
48 -7 c52 -8 90 -28 99 -52 8 -21 -10 -51 -35 -59 -20 -7 -19 -8 10 -26 38
-23 41 -56 6 -89 -31 -29 -31 -36 0 -44 14 -4 32 -17 41 -31 15 -23 15 -27 0
-50 -21 -33 -21 -35 12 -35 60 0 83 -72 36 -109 -29 -23 -69 -29 -61 -8 20 50
23 47 -45 41 -72 -7 -110 4 -133 40 -15 22 -15 29 0 80 29 100 -6 199 -100
283 -71 65 -115 83 -203 83 l-74 0 -44 45 c-50 52 -78 65 -140 65 -51 0 -103
-19 -150 -55 -23 -18 -45 -25 -77 -25 -112 0 -174 -113 -112 -204 19 -27 21
-35 8 -27 -14 8 -22 1 -44 -38 -23 -39 -41 -55 -99 -85 -46 -24 -78 -49 -91
-69 -18 -31 -27 -64 -11 -42 18 26 84 75 93 70 5 -4 9 -17 9 -30 0 -73 96
-291 189 -428 130 -194 354 -442 536 -595 330 -278 727 -525 1053 -656 122
-49 247 -84 259 -72 13 12 -23 33 -116 66 -436 158 -881 454 -1154 767 -257
296 -405 568 -463 853 -23 113 -25 254 -3 275 23 23 32 6 59 -110 121 -536
373 -925 830 -1286 183 -145 466 -301 728 -404 310 -120 770 -237 999 -254
108 -7 109 1 3 18 -41 6 -145 27 -230 46 -800 179 -1478 564 -1864 1059 -177
226 -320 520 -362 743 -39 208 12 387 100 353 36 -13 44 -35 61 -165 48 -367
186 -683 430 -985 118 -146 294 -316 420 -404 22 -16 29 -18 15 -6 -14 12 -65
56 -114 98 -85 74 -206 201 -293 307 -130 161 -280 434 -328 600 -52 180 -59
356 -16 399 32 32 55 12 58 -50 18 -362 96 -600 288 -869 31 -44 68 -91 82
-105 14 -14 0 9 -31 50 -105 143 -185 300 -232 455 -33 111 -47 356 -22 389
22 28 51 13 81 -42 l27 -47 0 54 c0 90 10 51 19 -71 6 -98 12 -123 40 -183 63
-136 157 -262 300 -405 259 -258 475 -417 723 -535 113 -53 100 -59 -20 -9
-163 67 -328 162 -512 294 -44 31 -44 31 11 -22 85 -83 209 -171 366 -261 78
-45 140 -83 138 -85 -5 -6 -211 97 -292 147 -123 75 -253 174 -367 280 -57 53
-52 39 13 -38 55 -65 187 -177 291 -246 41 -28 146 -87 235 -133 169 -87 174
-98 12 -26 -210 93 -389 216 -566 388 -138 134 -125 94 17 -55 106 -111 266
-239 413 -331 55 -34 97 -64 91 -66 -13 -4 -234 120 -307 173 -33 24 -86 65
-117 90 -32 26 -58 41 -58 35 0 -20 127 -135 208 -190 108 -72 394 -210 537
-258 318 -108 647 -158 970 -150 246 7 332 36 289 97 -32 45 -139 86 -539 205
-169 50 -177 58 -22 21 392 -92 819 -68 1032 60 130 79 178 161 123 212 -26
24 -69 39 -222 79 l-108 28 98 31 c159 51 293 124 416 228 71 61 88 68 88 39
0 -52 -115 -156 -257 -234 -40 -22 -73 -42 -73 -44 0 -20 347 166 391 209 37
38 38 38 63 21 14 -9 26 -23 26 -31 0 -76 -162 -187 -365 -249 -49 -15 -94
-30 -98 -34 -13 -11 102 1 208 22 118 23 199 49 280 90 108 54 144 102 124
168 -18 58 -49 83 -112 88 -31 2 -63 -1 -76 -7 -18 -10 -21 -9 -21 10 0 41
-47 106 -93 128 -48 23 -120 27 -164 10 -15 -6 -50 -11 -77 -10 -57 2 -144
-35 -176 -76 -32 -40 -24 -43 33 -13 118 65 211 25 161 -67 -23 -44 -100 -114
-167 -152 -29 -16 -99 -46 -157 -66 -123 -43 -140 -43 -348 5 -165 39 -177 43
-137 48 115 14 294 90 339 143 15 18 26 43 26 60 0 26 4 30 22 27 12 -2 30
-18 41 -35 18 -32 18 -34 0 -70 -24 -48 -99 -90 -228 -125 l-100 -28 82 5
c180 10 363 89 363 156 0 11 7 19 18 19 13 1 11 5 -10 23 -16 13 -28 28 -28
35 0 7 -11 24 -25 37 -33 34 -86 33 -168 -4 -59 -27 -66 -33 -79 -73 -23 -70
-111 -118 -281 -154 -59 -12 -70 -11 -207 22 -20 5 -7 11 60 30 117 34 238 93
233 114 -2 9 5 24 16 34 21 19 41 15 41 -9 0 -17 -111 -105 -175 -138 -44 -23
-47 -26 -23 -27 63 -1 200 81 235 140 15 27 20 29 62 24 36 -3 41 -2 24 5 -13
6 -31 24 -41 40 -12 20 -22 27 -31 22 -7 -5 -32 -6 -55 -4 -28 4 -53 0 -73
-11 -29 -14 -40 -26 -101 -106 -26 -33 -105 -62 -224 -82 -59 -9 -81 -8 -151
7 -95 21 -157 49 -157 71 0 29 30 73 134 197 199 239 244 333 201 417 -26 50
-169 103 -535 196 -96 25 -179 49 -185 55 -15 15 -10 110 10 169 12 35 31 64
58 89 22 20 70 64 107 99 86 80 109 82 163 12 20 -27 65 -70 100 -96 62 -47
173 -104 202 -104 8 0 27 -14 42 -31 72 -82 104 -103 248 -158 151 -58 182
-77 196 -118 17 -52 48 -56 177 -23 27 7 37 4 60 -14 28 -24 117 -42 127 -27
3 5 -13 36 -36 69 -23 33 -38 65 -35 71 4 6 27 11 50 11 40 0 78 22 63 36 -23
23 -167 30 -280 14 -66 -10 -71 -9 -120 17 -28 16 -103 78 -168 139 -81 78
-134 120 -175 139 -33 15 -82 49 -111 74 -28 26 -81 62 -117 81 -53 28 -67 41
-72 65 -12 57 -52 112 -113 153 -33 22 -57 42 -54 45 3 4 9 28 14 54 12 64 39
120 66 132 33 15 41 83 14 117 -25 32 -27 63 -4 102 14 25 15 33 3 61 -20 49
-54 61 -168 61 -87 0 -103 3 -127 22 l-28 22 7 -28 c6 -23 4 -27 -11 -22 -10
3 -33 2 -52 -2 -44 -9 -54 -32 -14 -32 l28 0 -30 -24 c-33 -27 -34 -36 -17
-176 5 -41 7 -78 5 -82 -6 -12 -68 -9 -198 8 -66 9 -141 13 -167 10 -46 -5
-141 -46 -153 -66 -3 -5 -27 -10 -53 -10 -72 0 -176 -18 -238 -39 -39 -14 -69
-18 -104 -14 -67 8 -122 -13 -249 -95 -108 -70 -183 -112 -199 -112 -5 0 -12
13 -15 30 -8 36 -47 63 -89 62 -44 -1 -75 18 -96 58 -24 47 -62 72 -121 78
-38 3 -60 0 -90 -16 -31 -17 -50 -20 -95 -15 -35 4 -67 1 -86 -7 -37 -15 -64
-62 -56 -96 5 -18 2 -24 -11 -24 -10 -1 -35 -7 -56 -14 -34 -13 -38 -12 -47 4
-6 10 -26 24 -45 31 -19 7 -35 18 -35 24 0 17 111 183 177 265 34 41 110 123
169 181 324 315 713 507 1189 585 154 26 530 26 700 1 1034 -155 1935 -859
2291 -1791 27 -69 94 -286 94 -302 0 -1 -15 5 -32 14 -21 11 -57 17 -101 17
-66 0 -67 0 -85 34 -24 48 -62 73 -119 78 -85 9 -150 -36 -130 -89 2 -7 -11
-20 -29 -29 l-33 -16 -11 32 c-16 47 -61 86 -109 92 -83 11 -139 -41 -126
-117 7 -41 -5 -59 -25 -35 -19 22 -83 19 -115 -7 -24 -19 -27 -26 -22 -64 3
-27 0 -47 -7 -53 -14 -12 -76 7 -104 32 -10 9 -28 17 -40 17 -13 0 -27 11 -36
28 -30 58 -102 68 -148 22 -24 -24 -29 -37 -26 -61 4 -25 0 -32 -18 -39 -30
-12 -47 -45 -40 -76 6 -21 3 -24 -26 -26 -18 -1 -54 0 -79 1 -31 2 -49 -2 -58
-13 -7 -8 -26 -18 -42 -21 -69 -15 -61 -115 9 -115 25 0 29 -22 8 -39 -8 -6
-16 -26 -18 -44 -3 -18 -8 -41 -12 -52 -4 -11 0 -8 9 8 9 15 24 27 35 27 11 0
20 5 20 10 0 6 -9 10 -21 10 -11 0 -19 3 -17 8 2 4 12 23 22 44 24 47 16 70
-22 62 -21 -4 -31 -2 -35 9 -8 22 22 60 44 54 10 -3 25 3 35 14 21 23 30 23
68 4 27 -14 31 -14 39 1 7 13 18 15 56 9 l46 -7 -22 24 c-35 38 -25 88 17 88
9 0 25 6 36 14 15 12 17 17 7 27 -45 45 38 105 91 66 10 -7 19 -25 19 -39 2
-23 6 -25 41 -24 30 0 42 -4 54 -22 8 -12 23 -22 33 -22 10 0 21 -4 24 -10 10
-16 65 -12 65 5 0 8 12 20 26 28 23 12 24 15 10 26 -24 20 -20 58 9 77 35 23
79 10 104 -29 18 -28 21 -29 21 -10 0 12 12 31 27 43 25 19 26 23 10 31 -25
14 -21 61 6 87 48 45 112 19 150 -63 29 -60 51 -70 82 -35 10 11 29 20 42 20
21 0 23 3 17 39 -6 35 -3 41 20 56 69 45 191 -29 156 -95 -9 -17 -8 -20 9 -20
11 0 22 3 24 8 3 4 41 5 86 2 75 -5 82 -7 116 -40 19 -18 44 -57 55 -85 l20
-50 -6 55 c-11 105 -45 255 -85 375 -78 238 -262 564 -445 795 -94 117 -299
325 -417 423 -587 487 -1382 744 -2083 676z m721 -595 c49 -9 127 -36 121 -41
-2 -3 -21 0 -40 7 -50 16 -68 7 -28 -14 48 -25 34 -30 -16 -6 -22 11 -47 20
-54 20 -7 0 -24 12 -38 27 l-25 26 25 -7 c14 -3 39 -9 55 -12z m-72 -61 c-7
-2 -21 -2 -30 0 -10 3 -4 5 12 5 17 0 24 -2 18 -5z m85 -28 c26 -14 62 -25 80
-25 46 0 72 -16 72 -45 0 -24 -3 -25 -55 -25 -44 0 -56 -4 -65 -20 -10 -20
-50 -28 -50 -11 0 5 7 28 15 51 21 58 20 58 -27 80 -24 11 -37 20 -30 20 7 0
34 -11 60 -25z m-88 -119 c0 -2 3 -13 6 -23 5 -17 5 -17 -6 0 -18 27 -32 20
-28 -15 2 -27 7 -32 23 -30 11 2 28 3 37 3 10 0 20 4 23 10 10 16 45 10 52 -8
10 -26 23 -33 70 -33 41 0 43 1 53 41 6 23 13 39 14 38 2 -2 6 -25 9 -51 6
-47 6 -48 -19 -48 -22 0 -24 -2 -14 -15 16 -19 4 -35 -26 -35 -14 0 -22 -4
-19 -10 3 -5 15 -10 26 -10 22 0 26 -18 4 -26 -10 -4 -12 -15 -9 -33 8 -36 -8
-42 -67 -25 -64 19 -134 93 -125 134 4 24 2 29 -17 32 -19 3 -22 10 -25 56 -3
47 -1 52 17 52 12 0 21 -2 21 -4z m-331 -102 c9 -8 -21 -148 -38 -182 l-19
-36 -30 47 c-16 26 -33 63 -36 82 -4 19 -11 35 -16 35 -17 0 -11 -69 10 -110
29 -56 24 -71 -10 -30 -34 40 -54 93 -47 121 3 10 0 19 -5 19 -11 0 -6 -59 8
-95 7 -19 7 -19 -13 -2 -11 10 -23 30 -26 45 -3 15 -8 34 -12 43 -8 21 47 56
107 69 38 7 116 4 127 -6z m150 -10 c87 -10 76 -24 -19 -24 -89 0 -85 3 -94
-79 -6 -56 2 -63 13 -12 l6 30 48 -21 c44 -19 47 -23 43 -50 -7 -47 18 -127
51 -160 20 -20 45 -32 79 -37 27 -5 44 -9 38 -10 -6 0 -14 -16 -18 -33 -3 -18
-16 -66 -28 -105 -21 -69 -24 -73 -56 -79 -19 -4 -74 -4 -123 -2 -68 4 -95 10
-111 24 -12 11 -18 13 -13 5 6 -10 4 -12 -4 -7 -7 5 -10 14 -7 22 3 7 0 16 -6
20 -7 5 -8 2 -3 -7 8 -12 6 -12 -8 -1 -9 8 -16 17 -15 20 0 4 0 14 -1 22 -1
12 -4 11 -12 -3 -15 -26 4 -76 49 -121 23 -25 32 -41 24 -43 -6 -3 -10 -9 -7
-14 4 -5 -1 -6 -9 -3 -9 3 -14 10 -11 14 3 5 -4 6 -15 3 -13 -3 -20 0 -20 9 0
7 -14 29 -31 48 l-31 35 26 -37 c26 -37 33 -58 19 -58 -5 0 -24 23 -43 51 -24
36 -36 47 -38 35 -4 -17 37 -93 63 -120 8 -8 11 -17 6 -20 -5 -4 -28 15 -50
40 -40 46 -54 43 -27 -5 8 -14 12 -32 9 -40 -4 -12 -2 -13 4 -4 7 10 17 5 41
-20 17 -17 31 -36 31 -41 0 -6 6 -11 13 -12 25 -3 78 -41 70 -49 -4 -5 -1 -5
5 -1 7 4 21 2 30 -3 13 -7 -23 -11 -127 -11 -140 0 -216 -11 -268 -39 -19 -10
-22 -9 -22 9 0 12 9 40 19 63 10 23 27 65 37 94 12 34 21 48 27 40 5 -7 6 -3
2 10 -6 22 12 94 63 243 44 130 39 122 62 108 16 -11 26 -9 57 7 91 48 147
141 160 266 7 67 2 65 122 53z m122 -88 c24 -52 24 -77 0 -107 -10 -14 -25
-43 -31 -67 -11 -35 -15 -40 -28 -29 -21 17 -42 71 -42 104 1 57 51 160 71
147 6 -4 20 -25 30 -48z m-587 24 c-5 -5 -48 -19 -94 -31 -47 -12 -87 -24 -90
-26 -3 -3 32 -3 78 -1 65 4 82 2 82 -9 0 -23 -47 -33 -161 -36 -103 -2 -130 3
-93 17 9 4 14 9 10 13 -3 3 -15 -2 -26 -12 -15 -14 -34 -18 -73 -17 -28 1 -65
-2 -82 -7 -28 -9 -27 -9 18 -10 26 -1 47 -6 47 -12 0 -6 -35 -26 -77 -45 -43
-19 -90 -42 -105 -50 -15 -8 -54 -24 -85 -34 -134 -44 -151 -58 -173 -141 -19
-74 -21 -79 -31 -79 -6 0 -7 4 -4 10 3 5 -10 26 -29 47 -33 36 -36 37 -58 24
-13 -8 -39 -23 -58 -33 -31 -17 -32 -17 -11 -1 52 38 66 51 60 57 -3 3 -31
-12 -63 -35 -32 -23 -59 -39 -62 -37 -2 3 23 27 55 54 33 27 60 52 60 57 1 12
-38 8 -72 -9 l-32 -15 25 20 c37 31 140 81 165 81 48 0 127 33 240 101 195
115 189 113 290 115 50 1 144 13 210 27 142 29 152 30 139 17z m70 -237 c-19
-49 -59 -169 -88 -268 -30 -99 -63 -206 -75 -237 -24 -65 -27 -121 -8 -139 7
-7 11 -27 9 -46 -6 -48 15 -122 45 -162 37 -49 117 -82 214 -88 43 -3 79 -7
79 -8 0 -2 -16 -36 -35 -76 -19 -41 -47 -123 -63 -184 -15 -60 -33 -109 -39
-108 -99 19 -329 46 -438 51 l-140 7 -50 67 c-50 66 -126 201 -139 245 -7 21
-5 21 25 13 18 -5 42 -7 54 -4 16 4 31 -2 49 -21 22 -22 33 -26 59 -21 39 8
64 32 76 72 11 37 -8 87 -38 104 -14 7 -21 21 -21 41 0 19 -9 39 -25 55 -23
23 -24 27 -10 47 19 28 19 57 -1 86 -12 17 -13 26 -5 34 24 24 12 64 -28 99
-35 29 -38 35 -26 51 11 15 17 16 34 8 11 -6 27 -11 36 -11 9 0 23 -7 31 -15
20 -19 27 -19 54 3 17 13 21 24 16 40 -9 27 -26 30 -19 3 7 -27 -9 -33 -59
-22 -47 11 -68 32 -68 69 0 13 -13 37 -29 53 -24 23 -38 29 -74 29 -31 0 -49
6 -62 20 -16 18 -16 20 -2 20 34 0 50 76 22 100 -8 7 -15 16 -15 20 0 4 45 22
100 39 55 18 136 47 180 65 l79 34 73 -15 c78 -17 173 -9 270 21 90 29 91 28
52 -71z m878 20 c37 -39 68 -92 68 -115 0 -7 35 -33 77 -58 42 -25 99 -66 127
-91 28 -26 79 -60 113 -77 34 -18 106 -71 160 -119 205 -184 193 -178 357
-162 89 8 144 9 171 3 36 -9 32 -10 -40 -10 -98 1 -122 -10 -74 -33 18 -9 43
-32 55 -51 13 -19 30 -43 39 -53 9 -10 14 -21 11 -24 -5 -6 -27 17 -78 80 -19
24 -30 28 -58 25 l-35 -4 34 -10 c23 -6 42 -23 58 -47 13 -20 19 -37 14 -37
-5 0 -16 11 -25 25 -15 22 -23 25 -78 25 -34 0 -77 -6 -96 -12 -30 -11 -35
-11 -48 7 -8 10 -14 31 -14 46 0 22 -12 36 -67 75 -38 26 -113 82 -168 124
-55 43 -131 97 -170 122 -38 25 -114 82 -167 127 -79 67 -102 93 -123 139 -14
30 -41 75 -61 99 -43 53 -31 57 18 6z m-1871 -227 c-6 -8 -24 -16 -40 -19 -16
-3 -42 -9 -57 -13 -16 -3 0 9 36 27 62 32 85 34 61 5z m1227 -262 c2 -1 -1 -5
-6 -8 -11 -7 -84 49 -75 57 3 3 22 -6 42 -21 20 -14 37 -27 39 -28z m-38 -218
c-25 -13 -58 -37 -74 -52 -23 -23 -27 -25 -18 -7 19 34 84 83 112 83 21 -1 19
-4 -20 -24z m-215 -31 c-22 -19 -44 -35 -49 -35 -12 0 -8 4 40 40 53 40 58 37
9 -5z m403 11 c26 -14 63 -38 82 -54 46 -39 47 -85 3 -139 -16 -21 -35 -38
-41 -38 -6 0 -21 16 -34 35 -33 48 -102 98 -154 111 l-45 12 27 28 c21 22 91
65 112 69 1 0 24 -11 50 -24z m412 -15 c-24 -13 -100 -22 -100 -12 0 14 20 19
70 20 29 0 40 -3 30 -8z m226 -45 c91 -31 143 -63 150 -92 10 -41 1 -45 -49
-19 -26 14 -53 25 -60 24 -30 -6 -178 14 -194 26 -17 13 -16 16 16 49 19 20
42 36 51 36 9 0 48 -11 86 -24z m127 -213 c-16 -40 -116 -185 -142 -206 -8 -6
8 20 36 58 28 39 65 96 83 128 37 66 46 73 23 20z m-377 9 l171 3 -34 -40
c-43 -51 -75 -120 -104 -223 -12 -46 -36 -111 -54 -145 -31 -62 -31 -62 -70
-59 -49 4 -475 89 -482 96 -6 5 181 260 247 337 l39 46 58 -9 c32 -5 135 -8
229 -6z m-528 -181 c-35 -57 -64 -95 -66 -86 -5 24 51 136 89 180 58 66 46 16
-23 -94z m-553 -156 c83 -5 335 -43 344 -51 9 -8 -53 -85 -65 -80 -7 3 -107
33 -223 67 -115 35 -208 66 -205 71 3 4 17 5 32 3 15 -2 67 -7 117 -10z m3
-65 c87 -27 183 -56 215 -66 58 -16 59 -16 53 -47 -5 -29 0 -39 52 -95 58 -63
59 -63 138 -77 139 -24 165 -2 98 81 -20 25 -35 47 -32 49 4 4 62 -10 348 -85
58 -16 97 -29 87 -29 -81 -4 -231 -26 -320 -47 l-108 -26 -67 25 c-121 46
-315 128 -397 167 -58 28 -103 60 -165 119 -47 44 -79 80 -72 81 8 0 84 -22
170 -50z m620 -30 c75 -16 190 -39 255 -51 112 -20 118 -23 112 -43 -21 -63
-16 -69 78 -100 48 -16 87 -33 87 -39 0 -20 -137 4 -383 68 -139 36 -257 71
-263 78 -22 24 -45 117 -28 117 3 0 67 -13 142 -30z m-248 -62 c7 -40 19 -91
26 -112 8 -22 12 -41 10 -43 -6 -6 -73 55 -97 88 l-20 29 31 55 c17 30 33 55
35 55 2 0 9 -33 15 -72z m735 -87 c46 -22 93 -36 139 -41 54 -6 74 -13 94 -34
14 -14 23 -28 19 -32 -10 -10 -90 13 -212 60 -60 24 -118 46 -127 49 -14 5
-15 11 -5 43 10 34 12 36 17 13 4 -18 23 -33 75 -58z m582 -82 c518 -115 823
-196 823 -219 0 -4 -7 -13 -15 -20 -20 -17 -277 -7 -420 15 -220 34 -724 138
-755 155 -9 6 4 8 38 8 59 -2 75 9 70 43 -3 21 -15 32 -84 76 -18 11 -18 12 3
12 12 1 165 -31 340 -70z m-1421 -5 c443 -187 870 -321 1211 -380 202 -35 462
-43 623 -20 122 18 267 61 338 101 56 31 54 14 -4 -25 -65 -46 -162 -87 -257
-111 -107 -27 -379 -37 -540 -19 -287 31 -664 135 -1070 296 -181 72 -450 204
-415 204 3 0 54 -21 114 -46z m184 24 c0 6 5 12 10 12 6 0 10 -7 10 -16 0 -20
-32 -15 -37 6 -4 13 -3 13 6 0 7 -10 11 -11 11 -2z m63 -3 c4 -8 3 -16 -1 -19
-13 -8 -35 11 -28 23 10 15 23 14 29 -4z m47 -19 c-7 -7 -14 -6 -22 3 -11 11
-10 12 1 6 11 -6 13 -4 7 10 -5 15 -4 16 9 5 11 -9 13 -16 5 -24z m830 -1 c19
-22 8 -25 -12 -3 -10 10 -14 18 -9 18 5 0 14 -7 21 -15z m105 -124 c423 -92
664 -130 852 -134 55 -1 99 -5 97 -9 -6 -10 -151 -64 -219 -82 -206 -53 -528
-49 -830 10 -191 38 -593 150 -618 173 -8 8 98 42 189 61 75 16 256 38 279 34
11 -2 124 -26 250 -53z"/>
<path d="M3454 4519 c-4 -7 -3 -9 4 -5 5 3 13 0 15 -6 4 -9 6 -10 6 -1 1 17
-16 25 -25 12z"/>
<path d="M3390 4420 c-7 -16 -34 -50 -61 -75 -53 -50 -57 -55 -34 -55 8 0 15
-5 15 -12 0 -6 3 -8 6 -5 4 4 1 13 -5 21 -10 11 -9 16 2 23 8 4 31 27 50 51
l36 43 4 -58 c3 -52 3 -50 5 20 1 42 0 77 -2 77 -2 0 -9 -13 -16 -30z"/>
<path d="M3443 4385 c0 -27 2 -38 4 -22 2 15 2 37 0 50 -2 12 -4 0 -4 -28z"/>
<path d="M3471 4378 c-1 -16 4 -28 9 -28 12 0 12 8 0 35 -8 18 -9 17 -9 -7z"/>
<path d="M3531 4348 c-1 -9 6 -24 15 -32 21 -22 31 -20 12 2 -9 9 -18 24 -21
32 -4 12 -6 12 -6 -2z"/>
<path d="M3450 4311 c0 -11 4 -22 9 -25 4 -3 6 6 3 19 -5 30 -12 33 -12 6z"/>
<path d="M3480 4319 c0 -5 5 -7 10 -4 6 3 10 8 10 11 0 2 -4 4 -10 4 -5 0 -10
-5 -10 -11z"/>
<path d="M3332 4265 c0 -16 2 -22 5 -12 2 9 2 23 0 30 -3 6 -5 -1 -5 -18z"/>
<path d="M3406 4274 c-4 -9 -4 -19 -1 -22 2 -3 7 3 11 12 4 9 4 19 1 22 -2 3
-7 -3 -11 -12z"/>
<path d="M3600 4270 c0 -6 7 -10 15 -10 8 0 15 2 15 4 0 2 -7 6 -15 10 -8 3
-15 1 -15 -4z"/>
<path d="M3460 4255 c0 -8 2 -15 4 -15 2 0 6 7 10 15 3 8 1 15 -4 15 -6 0 -10
-7 -10 -15z"/>
<path d="M3370 4241 c0 -7 14 -31 31 -52 17 -21 26 -39 21 -39 -5 0 -13 -8
-16 -17 -6 -16 -6 -16 12 0 10 9 22 14 25 10 12 -11 8 -21 -10 -25 -10 -2 -13
-6 -8 -10 6 -3 19 0 30 8 19 14 19 15 -4 30 -13 9 -36 37 -52 62 -16 25 -29
40 -29 33z"/>
<path d="M3420 4239 c0 -8 10 -25 21 -39 l20 -25 -17 35 c-20 43 -24 47 -24
29z"/>
<path d="M3476 4210 c3 -14 10 -32 15 -40 7 -13 8 -13 8 0 0 8 -6 26 -15 40
l-15 25 7 -25z"/>
<path d="M3224 4113 c9 -18 18 -33 20 -33 9 0 -8 41 -22 52 -13 11 -12 8 2
-19z"/>
<path d="M3192 4100 c0 -14 2 -19 5 -12 2 6 2 18 0 25 -3 6 -5 1 -5 -13z"/>
<path d="M3428 4083 c7 -3 16 -2 19 1 4 3 -2 6 -13 5 -11 0 -14 -3 -6 -6z"/>
<path d="M3455 4070 c-3 -5 -1 -10 4 -10 6 0 11 5 11 10 0 6 -2 10 -4 10 -3 0
-8 -4 -11 -10z"/>
<path d="M3190 4031 c0 -5 7 -12 16 -15 14 -5 15 -4 4 9 -14 17 -20 19 -20 6z"/>
<path d="M3150 4008 c0 -17 49 -77 50 -60 0 6 -4 12 -9 12 -5 0 -14 14 -20 30
-10 31 -21 40 -21 18z"/>
<path d="M3093 3891 c0 -11 4 -19 7 -18 9 3 49 -41 43 -47 -4 -3 6 -6 22 -6
22 0 25 3 16 13 -6 8 -7 18 -3 22 4 5 1 5 -6 1 -14 -8 -45 18 -34 29 4 5 2 5
-4 2 -7 -4 -14 0 -18 8 -8 22 -25 18 -23 -4z"/>
<path d="M2721 4081 c-25 -25 -17 -59 16 -74 21 -9 27 -8 39 7 7 11 10 24 6
30 -4 7 -8 5 -10 -6 -5 -25 -39 -22 -47 3 -8 24 1 35 30 41 18 3 18 4 2 11
-11 4 -24 0 -36 -12z"/>
<path d="M2592 4038 c-19 -19 -14 -33 6 -15 22 20 43 22 62 5 12 -11 12 -10 1
5 -15 20 -51 23 -69 5z"/>
<path d="M2690 3805 c-21 -25 -8 -50 30 -53 41 -4 65 20 49 49 -12 23 -61 25
-79 4z m65 -15 c0 -9 -11 -16 -27 -18 -20 -2 -28 1 -28 12 0 8 6 17 13 19 21
9 42 2 42 -13z"/>
<path d="M2814 3655 c-4 -9 -2 -21 4 -27 16 -16 47 -5 47 17 0 26 -42 34 -51
10z"/>
<path d="M2737 3543 c-17 -16 -4 -23 28 -17 27 5 41 2 55 -11 26 -24 25 -33
-5 -47 -19 -9 -29 -7 -50 6 -34 23 -47 10 -16 -15 65 -53 150 12 91 71 -20 20
-88 28 -103 13z"/>
<path d="M2703 3294 c-20 -8 -15 -32 7 -39 23 -7 63 12 57 28 -4 13 -44 19
-64 11z"/>
<path d="M3060 5134 c-8 -1 -48 -8 -88 -14 -98 -16 -86 -23 14 -9 43 6 156 14
249 18 l170 8 -165 0 c-91 1 -172 -1 -180 -3z"/>
<path d="M2007 4824 c-9 -10 12 -34 30 -34 19 0 12 34 -8 38 -8 1 -18 0 -22
-4z m33 -14 c0 -5 -2 -10 -4 -10 -3 0 -8 5 -11 10 -3 6 -1 10 4 10 6 0 11 -4
11 -10z"/>
<path d="M2344 4755 c-12 -8 -24 -12 -27 -9 -3 3 -15 3 -26 -1 -39 -12 -21
-75 21 -75 10 0 27 -9 38 -20 41 -41 120 -12 120 45 0 58 -78 94 -126 60z m87
-14 c20 -16 22 -23 14 -47 -12 -32 -52 -44 -89 -25 -12 5 -30 11 -41 13 -12 2
-21 12 -23 26 -3 18 1 22 23 22 15 0 33 7 41 15 21 20 47 19 75 -4z"/>
<path d="M2590 4762 c-33 -15 -60 -37 -60 -50 0 -8 15 -2 40 14 22 15 40 31
40 35 0 10 0 10 -20 1z"/>
<path d="M2025 4748 c-27 -15 -35 -28 -35 -59 0 -27 -16 -39 -51 -39 -22 0
-26 29 -7 48 9 9 9 12 0 12 -6 0 -16 -9 -22 -21 -9 -16 -8 -26 5 -45 15 -24
35 -32 35 -15 0 12 39 26 63 22 17 -2 17 -1 2 22 -8 13 -13 31 -9 40 8 21 58
31 86 16 20 -10 21 -10 8 4 -22 22 -52 28 -75 15z"/>
<path d="M1263 4703 c-18 -7 -16 -38 3 -54 11 -9 20 -10 32 -3 23 15 25 29 7
48 -17 17 -22 18 -42 9z m42 -28 c0 -5 -10 -11 -22 -13 -16 -2 -23 2 -23 13 0
11 7 15 23 13 12 -2 22 -7 22 -13z"/>
<path d="M1705 4664 c-14 -14 -14 -19 -2 -38 20 -29 71 -29 75 1 2 13 -5 27
-20 37 -28 20 -33 20 -53 0z m60 -29 c0 -30 -39 -27 -43 3 -3 20 0 23 20 20
15 -2 23 -10 23 -23z"/>
<path d="M1835 4670 c-3 -6 -3 -19 0 -30 8 -26 55 -28 55 -2 0 33 -40 56 -55
32z m35 -20 c0 -5 -4 -10 -9 -10 -6 0 -13 5 -16 10 -3 6 1 10 9 10 9 0 16 -4
16 -10z"/>
<path d="M2095 4661 c4 -13 0 -23 -12 -30 -10 -6 -13 -11 -6 -11 15 0 44 40
37 52 -10 16 -25 8 -19 -11z"/>
<path d="M2286 4564 c-12 -12 -13 -20 -6 -35 15 -27 23 -24 16 7 -7 25 -5 26
29 22 36 -4 47 5 19 16 -25 10 -42 7 -58 -10z"/>
<path d="M1165 4509 c-4 -5 -4 -20 -1 -33 4 -15 -1 -28 -14 -39 -26 -22 -25
-52 0 -77 25 -25 85 -27 94 -4 9 24 7 29 -6 16 -16 -16 -50 -15 -72 1 -17 12
-17 16 -3 42 11 21 22 29 42 30 39 0 55 28 31 54 -20 22 -60 28 -71 10z m69
-24 c3 -9 -1 -18 -9 -21 -18 -7 -47 14 -39 27 9 15 41 10 48 -6z"/>
<path d="M2346 4493 c-14 -19 -25 -24 -47 -21 -15 3 -26 1 -23 -4 12 -19 64
-8 80 17 22 34 14 40 -10 8z"/>
<path d="M2205 4500 c-8 -14 13 -40 32 -40 20 0 12 44 -9 48 -9 2 -19 -2 -23
-8z m35 -10 c0 -5 -4 -10 -10 -10 -5 0 -10 5 -10 10 0 6 5 10 10 10 6 0 10 -4
10 -10z"/>
<path d="M1776 4362 c-2 -4 11 -6 30 -4 19 2 34 6 34 8 0 8 -59 4 -64 -4z"/>
<path d="M1841 4316 c2 -1 20 -8 39 -14 32 -11 33 -10 16 3 -16 12 -69 23 -55
11z"/>
<path d="M5708 3729 c-10 -5 -18 -17 -18 -24 0 -20 16 -19 24 0 8 21 62 19 75
-2 9 -15 10 -15 11 -2 0 35 -53 51 -92 28z"/>
<path d="M5684 3659 c-3 -6 0 -17 7 -24 20 -18 59 -29 59 -16 0 6 -6 11 -14
11 -7 0 -16 9 -19 20 -6 22 -22 26 -33 9z m26 -9 c0 -5 -4 -10 -10 -10 -5 0
-10 5 -10 10 0 6 5 10 10 10 6 0 10 -4 10 -10z"/>
<path d="M5767 3663 c-14 -13 -6 -33 13 -33 13 0 20 7 20 20 0 19 -20 27 -33
13z m23 -13 c0 -5 -4 -10 -10 -10 -5 0 -10 5 -10 10 0 6 5 10 10 10 6 0 10 -4
10 -10z"/>
<path d="M5785 3600 c3 -5 10 -10 16 -10 5 0 9 5 9 10 0 6 -7 10 -16 10 -8 0
-12 -4 -9 -10z"/>
<path d="M5617 3594 c-4 -4 -4 -10 -1 -15 6 -10 34 0 34 12 0 10 -24 12 -33 3z"/>
<path d="M4870 3455 c-18 -22 1 -39 34 -31 29 7 35 31 10 40 -23 9 -30 8 -44
-9z m30 -15 c0 -5 -2 -10 -4 -10 -3 0 -8 5 -11 10 -3 6 -1 10 4 10 6 0 11 -4
11 -10z"/>
<path d="M1110 3417 c0 -9 14 -27 30 -41 l31 -25 -36 -15 c-36 -15 -65 -62
-65 -105 0 -12 -9 -21 -27 -26 -42 -10 -63 -34 -63 -72 0 -48 32 -76 78 -71
21 3 45 8 55 12 14 7 17 3 17 -17 0 -14 8 -35 18 -48 15 -18 17 -28 9 -50 -9
-21 -7 -33 7 -54 10 -15 27 -30 38 -33 13 -3 17 -9 12 -21 -4 -9 -8 -30 -8
-48 -1 -21 -10 -38 -28 -52 -14 -12 -29 -35 -33 -52 -4 -18 -16 -34 -28 -38
-38 -15 -62 -50 -62 -91 0 -71 68 -131 149 -132 53 -1 88 19 106 61 16 40 41
40 79 -1 27 -29 37 -33 76 -31 43 1 45 0 45 -26 0 -32 34 -81 56 -81 8 0 14
-8 14 -18 0 -10 7 -28 16 -40 17 -24 70 -30 105 -11 17 9 25 6 44 -15 24 -26
65 -36 65 -16 0 6 -7 10 -15 10 -28 0 -55 38 -55 78 l0 37 -18 -35 c-14 -29
-23 -36 -53 -38 -43 -4 -68 18 -44 38 23 19 18 30 -13 30 -60 0 -78 59 -42
130 27 53 25 59 -7 28 -61 -57 -100 -61 -150 -18 -50 44 -98 42 -138 -6 -24
-29 -38 -36 -68 -37 -42 -1 -83 25 -107 66 -22 39 2 81 49 85 31 3 33 5 27 34
-5 24 0 35 25 60 26 27 35 30 72 25 23 -2 51 -8 62 -12 18 -7 18 -6 -4 18 -14
15 -39 28 -63 32 -35 6 -39 10 -36 33 3 26 16 36 82 61 43 17 23 26 -26 12
-55 -16 -95 -2 -104 34 -8 32 10 55 28 37 13 -13 84 -16 92 -4 2 4 -11 6 -30
4 -29 -4 -35 0 -44 22 -5 14 -16 26 -24 26 -22 0 -46 28 -46 53 1 12 11 35 24
50 19 24 26 26 47 18 14 -5 31 -16 38 -25 16 -19 57 -21 67 -4 4 7 3 8 -4 4
-16 -9 -52 11 -52 29 0 8 -8 15 -17 15 -10 1 -27 15 -38 32 -29 45 -45 47 -45
5 0 -40 -22 -64 -68 -73 -18 -4 -32 -10 -32 -14 0 -4 -7 -11 -16 -14 -22 -8
-54 21 -54 49 0 31 19 45 61 45 l37 0 -1 45 c-3 62 23 87 98 93 l55 5 -32 23
c-17 13 -37 24 -44 24 -7 0 -26 14 -43 31 -20 20 -31 25 -31 16z"/>
<path d="M4557 3303 c-13 -12 -7 -41 10 -47 9 -4 23 0 31 8 13 12 13 18 2 30
-13 17 -32 21 -43 9z m36 -18 c0 -6 -7 -11 -16 -13 -12 -3 -15 1 -11 13 7 17
25 17 27 0z"/>
<path d="M5893 3297 c16 -8 33 -20 38 -28 5 -8 9 -9 9 -3 0 15 -20 30 -50 38
-22 5 -22 4 3 -7z"/>
<path d="M5650 3280 c-8 -5 -10 -10 -5 -10 6 0 17 5 25 10 8 5 11 10 5 10 -5
0 -17 -5 -25 -10z"/>
<path d="M5743 3263 c9 -2 23 -2 30 0 6 3 -1 5 -18 5 -16 0 -22 -2 -12 -5z"/>
<path d="M4809 3151 c-21 -16 -22 -22 -11 -45 12 -27 24 -30 57 -16 18 8 17 9
-8 9 -16 1 -30 8 -34 17 -9 24 26 47 60 40 17 -4 26 -2 22 4 -10 17 -61 11
-86 -9z"/>
<path d="M5265 2920 c-23 -26 -4 -26 26 0 18 15 20 19 8 20 -9 0 -24 -9 -34
-20z"/>
<path d="M4316 2921 c-3 -5 0 -14 8 -20 10 -8 16 -8 25 2 6 8 8 17 4 20 -9 10
-31 9 -37 -2z m24 -11 c0 -5 -2 -10 -4 -10 -3 0 -8 5 -11 10 -3 6 -1 10 4 10
6 0 11 -4 11 -10z"/>
<path d="M4392 2913 c4 -22 43 -25 43 -3 0 8 -11 16 -23 18 -19 3 -23 0 -20
-15z m28 -3 c0 -5 -4 -10 -10 -10 -5 0 -10 5 -10 10 0 6 5 10 10 10 6 0 10 -4
10 -10z"/>
<path d="M6040 2706 c0 -14 5 -28 10 -31 6 -3 10 5 10 19 0 14 -4 28 -10 31
-6 3 -10 -5 -10 -19z"/>
<path d="M5875 2590 c-53 -11 -125 -40 -125 -51 0 -11 -12 -13 98 19 51 16 89
31 86 35 -4 4 -10 7 -13 6 -3 -1 -24 -5 -46 -9z"/>
<path d="M1856 2532 c-10 -17 35 -92 87 -144 77 -78 201 -157 373 -239 129
-62 285 -129 299 -129 24 0 -17 34 -137 113 -79 52 -237 165 -351 251 -156
116 -216 156 -237 156 -16 0 -31 -4 -34 -8z"/>
<path d="M5881 2460 c-24 -11 -41 -23 -38 -26 7 -8 116 26 123 37 9 16 -40 9
-85 -11z"/>
<path d="M1518 2260 c-70 -43 -21 -140 71 -140 38 0 91 44 91 75 0 43 -31 68
-91 72 -30 2 -62 -1 -71 -7z m113 -20 c11 -6 19 -21 19 -35 0 -28 -25 -45 -66
-45 -52 0 -85 57 -46 79 22 13 68 14 93 1z"/>
<path d="M5443 2234 c-3 -8 -1 -20 6 -27 8 -8 11 -7 11 6 0 9 5 17 11 17 5 0
7 5 4 10 -9 15 -25 12 -32 -6z"/>
<path d="M5530 2171 c0 -5 -20 -6 -45 -3 -38 4 -45 2 -45 -13 0 -14 3 -15 15
-5 9 7 25 10 41 6 20 -5 25 -12 22 -34 -2 -19 -9 -28 -26 -30 -30 -5 -22 -28
8 -24 35 4 52 22 45 46 -4 12 -6 31 -6 44 0 12 -1 22 -4 22 -3 0 -5 -4 -5 -9z"/>
<path d="M5113 2163 c-7 -2 -13 -11 -13 -19 0 -17 5 -17 29 -2 39 24 92 -37
59 -70 -7 -7 -37 -12 -67 -13 -32 0 -48 -3 -38 -7 16 -7 16 -9 -3 -25 -17 -14
-19 -21 -10 -38 9 -16 19 -19 48 -17 42 3 56 33 27 54 -15 11 -13 14 20 20 25
4 40 14 47 30 25 53 -41 111 -99 87z m27 -157 c0 -20 -16 -29 -40 -21 -32 10
-25 35 10 35 19 0 30 -5 30 -14z"/>
<path d="M5367 2153 c-22 -21 21 -73 60 -73 13 0 23 2 23 4 0 6 -66 76 -72 76
-2 0 -8 -3 -11 -7z"/>
<path d="M5061 2117 c-6 -6 -11 -18 -11 -26 0 -11 3 -12 8 -4 4 7 18 16 32 21
23 8 23 9 3 14 -12 3 -26 1 -32 -5z"/>
<path d="M1812 2053 c-15 -6 -42 -56 -42 -78 0 -31 55 -75 94 -75 20 0 36 -4
36 -10 0 -5 9 -19 20 -30 29 -29 99 -28 128 3 12 13 22 29 22 36 0 9 6 10 18
5 9 -5 40 -9 68 -9 61 0 94 23 94 66 0 36 -30 53 -76 44 -41 -7 -46 -23 -6
-17 19 2 35 -3 47 -14 17 -17 16 -19 -9 -41 -35 -30 -64 -29 -110 2 -42 29
-65 25 -58 -11 6 -33 -14 -54 -53 -54 -37 0 -69 29 -59 54 6 16 2 17 -40 11
-72 -11 -107 30 -70 83 17 24 62 30 82 10 7 -7 12 -8 12 -2 0 28 -57 44 -98
27z"/>
<path d="M5390 1939 c-11 -8 -4 -9 28 -5 29 4 41 3 37 -4 -3 -5 -18 -10 -33
-10 -23 -1 -24 -2 -10 -11 21 -12 58 4 58 26 0 18 -57 20 -80 4z"/>
<path d="M4604 1870 c-29 -11 -35 -33 -18 -59 19 -27 49 -27 68 1 26 36 -7 74
-50 58z m34 -34 c4 -21 -14 -37 -35 -29 -14 5 -18 35 -6 47 12 12 38 1 41 -18z"/>
<path d="M5250 1864 c-71 -29 -80 -36 -80 -69 0 -30 4 -35 38 -46 55 -19 131
-16 177 6 48 24 54 44 22 81 -20 23 -33 28 -83 30 -32 2 -66 1 -74 -2z m130
-39 l24 -25 -21 -21 c-22 -22 -93 -30 -145 -16 -66 18 -3 87 78 87 30 0 46 -6
64 -25z"/>
<path d="M2488 1839 c-22 -12 -23 -38 -3 -45 15 -6 75 16 75 28 0 8 -34 28
-47 28 -4 0 -16 -5 -25 -11z m40 -21 c-7 -19 -38 -22 -38 -4 0 10 9 16 21 16
12 0 19 -5 17 -12z"/>
<path d="M4970 1790 c-11 -7 3 -10 48 -10 35 0 62 4 62 10 0 13 -90 13 -110 0z"/>
<path d="M2538 1773 c7 -3 16 -2 19 1 4 3 -2 6 -13 5 -11 0 -14 -3 -6 -6z"/>
<path d="M2376 1714 c-37 -36 -2 -84 62 -84 22 0 41 8 59 26 l27 27 -28 23
c-32 28 -96 33 -120 8z m87 -16 c45 -21 30 -58 -23 -58 -28 0 -64 34 -57 53 8
20 43 22 80 5z"/>
<path d="M4496 1695 c-9 -9 -16 -23 -16 -31 0 -16 39 -28 67 -21 15 4 15 5 -3
6 -29 1 -51 28 -36 43 9 9 18 6 36 -11 14 -13 29 -20 35 -16 18 10 13 22 -11
28 -13 2 -30 8 -39 11 -10 4 -23 0 -33 -9z"/>
<path d="M4835 1690 c-4 -6 -2 -17 5 -24 14 -18 52 -8 48 13 -4 19 -43 27 -53
11z m40 -10 c3 -5 -1 -10 -10 -10 -9 0 -13 5 -10 10 3 6 8 10 10 10 2 0 7 -4
10 -10z"/>
<path d="M2660 1672 c0 -4 9 -13 21 -20 16 -11 18 -16 9 -28 -16 -19 -39 -18
-62 3 -15 13 -18 14 -18 2 0 -40 73 -54 103 -21 21 23 21 36 1 56 -16 16 -54
22 -54 8z"/>
</g>
</svg>
